<svg xmlns="http://www.w3.org/2000/svg" viewBox="0 0 1415.31 239.33"><defs><style>.cls-1{fill:#005596;}.cls-2{fill:#8dc63f;}</style></defs><title>avispl_logo</title><g id="Layer_2" data-name="Layer 2"><g id="Layer_1-2" data-name="Layer 1"><path class="cls-1" d="M1388.67,32.47c14.89,0,26.64,11,26.64,26.12s-11.75,26-26.64,26-26.52-10.84-26.52-26S1373.91,32.47,1388.67,32.47Zm0,45.85c11.23,0,20.24-8.1,20.24-19.73s-9-19.85-20.24-19.85-20.12,8.36-20.12,19.85S1377.43,78.32,1388.67,78.32Zm-9.4-33.44h11.49c4.31,0,7.58,2.74,7.58,8.1,0,3.52-1.18,6.92-4.58,7.84l7.06,10.7h-6.67l-6.66-10.19h-2.22V71.52h-6Zm9.79,4.83h-3.79V56.5h3.66c2.22,0,3.4-.91,3.4-3.52C1392.33,50.75,1391.41,49.71,1389.06,49.71Z"/><polygon class="cls-1" points="615.08 177.76 604.98 183.38 489.73 119.67 603.74 55.96 719.27 119.71 693.42 134.1 743.87 161.99 820.14 119.5 603.59 0 389.04 119.9 605.08 239.33 665.53 205.65 615.08 177.76"/><polygon class="cls-2" points="743.57 61.58 753.67 55.95 868.92 119.67 754.91 183.37 639.39 119.62 665.23 105.22 614.79 77.33 538.51 119.83 755.07 239.33 969.62 119.43 753.58 0 693.12 33.69 743.57 61.58"/><path class="cls-1" d="M50.4,36.16h60.28l50.4,167H117.6l-8.4-27.92H51.88l-8.4,27.92H0Zm11.86,104H98.58l-12.85-43c-1.48-5.19-3-12.61-3-12.61h-4.7a121.84,121.84,0,0,1-2.72,12.61Z"/><path class="cls-1" d="M141.33,36.16h43.73l29.4,99.56c1.49,5.19,5.68,26.44,5.68,26.44h4c.25-1,4.44-22.73,5.43-26.44l29.65-99.56h43.73l-50.4,167H191.73Z"/><path class="cls-1" d="M319.48,36.16H362v167h-42.5Z"/><path class="cls-1" d="M1051.9,206.88c-24.71,0-49.91-8.15-61.77-14.08L997.79,159c15.07,6.67,33.35,11.86,49.66,11.86,11.86,0,20.75-5.44,20.75-17.05,0-8.15-4.2-13.59-14.57-16.06l-18-4.2c-26.93-6.17-47.43-16.8-47.43-49.16,0-31.13,21-51.88,61-51.88,20.75,0,40.52,6.66,50.4,11.6L1088,77.91c-6.42-2.72-21.5-9.38-37.31-9.38-12.1,0-19,6.17-19,14.82,0,7.91,5.19,11.61,10.62,12.85l20,4.69c29.16,6.91,49.42,18.53,49.42,50.65C1111.69,180.94,1096.61,206.88,1051.9,206.88Z"/><path class="cls-1" d="M1169,150.8v52.37h-42.5v-167h64.24c17.79,0,31.62,5.19,41.26,14.08,10.87,10.38,17.78,25.94,17.78,44.48,0,18.77-6.91,33.35-17.53,43.23-8.65,7.66-21.25,12.85-41.51,12.85Zm33.6-74.87c-3.21-3-7.42-4.69-13.1-4.69H1169v44.47h20.5a18,18,0,0,0,13.1-5.19c3.21-3.21,4.69-9.63,4.69-17.53S1205.83,79.15,1202.62,75.93Z"/><path class="cls-1" d="M1266.12,36.16h42.5V168.09h58.55v35.08H1266.12Z"/></g></g></svg>